<?xml version="1.0" encoding="utf-8"?>
<!-- Generator: Adobe Illustrator 24.0.1, SVG Export Plug-In . SVG Version: 6.00 Build 0)  -->
<svg version="1.2" baseProfile="tiny" id="Camada_3"
	 xmlns="http://www.w3.org/2000/svg" xmlns:xlink="http://www.w3.org/1999/xlink" x="0px" y="0px" viewBox="0 0 543.89 136.664"
	 xml:space="preserve">
<path fill="#C40000" d="M89.996,0c-1.889,0-3.588,1.148-4.292,2.901L55.083,79.102h-0.439L47.01,4.157
	C46.77,1.796,44.782,0,42.408,0H23.692c-2.29,0-4.236,1.676-4.575,3.941L0.052,131.354c-0.418,2.796,1.747,5.31,4.575,5.31h0h15.212
	h53.11h13.468h3.054c2.29,0,4.236-1.676,4.575-3.941L113.102,5.31C113.52,2.514,111.355,0,108.528,0H89.996z M72.019,116.205H28.26
	c-2.827,0-4.992-2.513-4.575-5.308l10.597-70.979h0.439l8.607,62.727c0.314,2.29,2.271,3.997,4.583,3.997h6.779
	c1.84,0,3.505-1.091,4.24-2.778l28.086-64.459l0.439,0.146l-10.862,72.712C76.255,114.528,74.31,116.205,72.019,116.205z"/>
<g>
	<g>
		<path fill="#FFFFFF" d="M150.971,110.62c-0.093-1.731-2.238-2.489-3.388-1.192c-1.867,2.105-3.909,3.827-6.125,5.166
			c-3.516,2.124-7.35,3.186-11.499,3.186c-6.885,0-12-2.88-15.344-8.643c-3.345-5.761-4.114-14.575-2.307-26.44l6.564-44.042
			c0.142-0.954,0.962-1.661,1.927-1.661h16.713c1.191,0,2.103,1.059,1.926,2.237l-6.549,43.613
			c-1.124,7.374-1.185,12.341-0.183,14.905c1,2.563,3.014,3.845,6.042,3.845c2.344,0,4.504-0.476,6.482-1.428
			c1.818-0.875,3.46-2.132,4.928-3.771c0.252-0.282,0.412-0.64,0.468-1.014l8.456-56.726c0.142-0.954,0.962-1.661,1.927-1.661
			h16.787c1.191,0,2.103,1.059,1.926,2.236l-11.282,75.352c-0.143,0.954-0.962,1.659-1.926,1.659h-13.395
			c-1.035,0-1.89-0.81-1.945-1.843L150.971,110.62z"/>
		<path fill="#FFFFFF" d="M201.209,116.242h-16.715c-1.191,0-2.103-1.059-1.926-2.237L199.122,3.643
			c0.143-0.953,0.962-1.659,1.926-1.659h16.715c1.191,0,2.103,1.059,1.926,2.237l-16.554,110.362
			C202.992,115.536,202.173,116.242,201.209,116.242z"/>
		<path fill="#FFFFFF" d="M254.397,19.533l-2.319,15.22c-0.18,1.179,0.733,2.241,1.926,2.241h6.238c1.19,0,2.102,1.058,1.926,2.235
			l-1.616,10.826c-0.142,0.954-0.962,1.66-1.926,1.66h-7.408c-0.965,0-1.785,0.707-1.927,1.661l-5.759,38.695
			c-0.586,3.468-0.489,5.885,0.293,7.251c0.78,1.368,2.025,2.051,3.735,2.051c0.928,0,1.746-0.061,2.455-0.183
			c0.007-0.001,0.014-0.002,0.021-0.004c1.241-0.215,2.373,0.737,2.319,1.996l-0.488,11.258c-0.036,0.836-0.606,1.548-1.407,1.789
			c-1.558,0.469-3.049,0.826-4.475,1.074c-1.831,0.317-3.871,0.476-6.116,0.476c-6.495,0-11.292-2.062-14.392-6.189
			c-3.102-4.125-3.992-10.583-2.673-19.373l5.743-38.266c0.177-1.178-0.735-2.237-1.926-2.237h-5.073
			c-1.19,0-2.102-1.058-1.926-2.235l1.616-10.826c0.142-0.954,0.962-1.66,1.926-1.66h6.243c0.962,0,1.781-0.703,1.926-1.654
			l2.499-16.393c0.145-0.951,0.963-1.654,1.926-1.654h16.713C253.664,17.292,254.577,18.354,254.397,19.533z"/>
		<path fill="#FFFFFF" d="M279.303,116.242h-16.715c-1.191,0-2.103-1.059-1.926-2.236l11.282-75.352
			c0.143-0.954,0.962-1.659,1.926-1.659h16.715c1.191,0,2.103,1.059,1.926,2.236l-11.282,75.352
			C281.087,115.536,280.268,116.242,279.303,116.242z M294.097,17.731h-16.716c-1.19,0-2.102-1.058-1.927-2.235l1.764-11.851
			c0.142-0.954,0.962-1.661,1.927-1.661h16.716c1.19,0,2.102,1.058,1.927,2.235l-1.764,11.851
			C295.881,17.024,295.062,17.731,294.097,17.731z"/>
		<path fill="#FFFFFF" d="M335.793,116.242c-0.926,0-1.712-0.652-1.911-1.556c-0.296-1.347-0.523-2.757-0.682-4.23
			c-0.015-0.143-0.03-0.287-0.044-0.43c-0.167-1.738-2.329-2.41-3.435-1.059c-1.552,1.897-3.248,3.565-5.09,5.005
			c-3.248,2.538-6.947,3.809-11.097,3.809c-6.934,0-12.085-2.135-15.454-6.409c-3.369-4.272-4.541-10.045-3.516-17.322
			c1.172-8.007,4.602-14.074,10.291-18.201c5.688-4.125,13.659-6.189,23.913-6.189h7.341c0.96,0,1.777-0.7,1.925-1.648l0.769-4.943
			c0.586-4.052,0.317-7.116-0.806-9.192c-1.124-2.075-3.149-3.113-6.079-3.113c-2.442,0-4.48,0.868-6.115,2.6
			c-1.357,1.438-2.302,3.354-2.836,5.747c-0.199,0.895-0.987,1.538-1.904,1.534l-18.296-0.067l-0.073-0.439
			c0.78-7.079,4.212-12.951,10.29-17.615c6.08-4.662,13.587-6.995,22.522-6.995c8.008,0,14.319,2.406,18.933,7.214
			c4.615,4.81,6.287,11.634,5.018,20.471l-4.907,32.52c-0.586,3.907-0.854,7.471-0.806,10.693c0.037,2.503,0.252,5.035,0.644,7.597
			c0.179,1.169-0.743,2.218-1.926,2.218H335.793z M321.152,102.472c2.637,0,5.188-0.866,7.653-2.6
			c2.366-1.662,4.113-3.629,5.244-5.9c0.095-0.19,0.156-0.396,0.187-0.606l1.451-9.753c0.175-1.177-0.737-2.235-1.927-2.235h-6.75
			c-3.321,0-5.981,1.135-7.983,3.406c-2.003,2.271-3.248,5.09-3.735,8.459c-0.439,2.882-0.135,5.14,0.915,6.775
			C317.257,101.655,318.906,102.472,321.152,102.472z"/>
		<path fill="#FFFFFF" d="M401.626,19.533l-2.32,15.22c-0.18,1.179,0.733,2.241,1.926,2.241h6.239c1.19,0,2.102,1.058,1.926,2.235
			l-1.616,10.826c-0.142,0.954-0.962,1.66-1.926,1.66h-7.409c-0.965,0-1.785,0.707-1.927,1.661l-5.759,38.695
			c-0.586,3.468-0.488,5.885,0.293,7.251c0.78,1.368,2.025,2.051,3.735,2.051c0.927,0,1.745-0.061,2.454-0.183
			c0.007-0.001,0.014-0.002,0.021-0.004c1.241-0.215,2.373,0.737,2.319,1.996l-0.487,11.258c-0.036,0.836-0.606,1.548-1.407,1.789
			c-1.558,0.469-3.05,0.826-4.475,1.074c-1.83,0.317-3.87,0.476-6.115,0.476c-6.494,0-11.292-2.062-14.393-6.189
			c-3.101-4.125-3.991-10.583-2.673-19.373l5.743-38.266c0.177-1.178-0.735-2.237-1.926-2.237h-5.073
			c-1.19,0-2.102-1.058-1.926-2.235l1.616-10.826c0.142-0.954,0.962-1.66,1.926-1.66h6.243c0.962,0,1.781-0.703,1.926-1.654
			l2.499-16.393c0.145-0.951,0.963-1.654,1.926-1.654H399.7C400.893,17.292,401.806,18.354,401.626,19.533z"/>
		<path fill="#FFFFFF" d="M447.669,116.242c-0.926,0-1.712-0.652-1.911-1.556c-0.296-1.347-0.523-2.757-0.682-4.23
			c-0.015-0.143-0.03-0.287-0.044-0.43c-0.167-1.738-2.329-2.41-3.435-1.059c-1.552,1.897-3.248,3.565-5.09,5.005
			c-3.248,2.538-6.947,3.809-11.097,3.809c-6.934,0-12.085-2.135-15.454-6.409c-3.369-4.272-4.541-10.045-3.516-17.322
			c1.172-8.007,4.602-14.074,10.291-18.201c5.688-4.125,13.659-6.189,23.913-6.189h7.341c0.96,0,1.777-0.7,1.925-1.648l0.769-4.943
			c0.586-4.052,0.317-7.116-0.806-9.192c-1.124-2.075-3.149-3.113-6.079-3.113c-2.442,0-4.48,0.868-6.115,2.6
			c-1.357,1.438-2.302,3.354-2.836,5.747c-0.199,0.895-0.987,1.538-1.904,1.534l-18.296-0.067l-0.073-0.439
			c0.78-7.079,4.212-12.951,10.29-17.615c6.08-4.662,13.587-6.995,22.522-6.995c8.008,0,14.319,2.406,18.933,7.214
			c4.615,4.81,6.287,11.634,5.018,20.471l-4.907,32.52c-0.586,3.907-0.854,7.471-0.806,10.693c0.037,2.503,0.252,5.035,0.644,7.597
			c0.179,1.169-0.743,2.218-1.926,2.218H447.669z M433.028,102.472c2.637,0,5.188-0.866,7.653-2.6
			c2.366-1.662,4.113-3.629,5.244-5.9c0.095-0.19,0.156-0.396,0.187-0.606l1.451-9.753c0.175-1.177-0.737-2.235-1.927-2.235h-6.75
			c-3.321,0-5.981,1.135-7.983,3.406c-2.003,2.271-3.248,5.09-3.735,8.459c-0.439,2.882-0.135,5.14,0.915,6.775
			C429.133,101.655,430.782,102.472,433.028,102.472z"/>
	</g>
	<g>
		<path fill="#FFFFFF" d="M490.608,1.984h16.714c1.192,0,2.104,1.06,1.926,2.238l-9.139,60.562
			c-0.178,1.178,0.734,2.238,1.926,2.238h0.101c0.671,0,1.294-0.345,1.65-0.913l17.678-28.203c0.356-0.568,0.98-0.913,1.65-0.913
			h18.824c1.606,0,2.522,1.835,1.557,3.119l-23.863,31.73c-0.416,0.553-0.507,1.285-0.24,1.924l16.673,39.774
			c0.538,1.284-0.405,2.701-1.796,2.701h-19.375c-0.814,0-1.542-0.506-1.825-1.268l-11.434-30.715
			c-0.284-0.763-1.012-1.268-1.825-1.268h-0.706c-0.964,0-1.783,0.705-1.926,1.658l-4.519,29.988
			c-0.144,0.953-0.962,1.658-1.926,1.658h-16.725c-1.191,0-2.103-1.06-1.926-2.237L488.682,3.642
			C488.825,2.689,489.644,1.984,490.608,1.984z"/>
	</g>
</g>
</svg>
