<?xml version="1.0" encoding="utf-8"?>
<!-- Generator: Adobe Illustrator 24.0.1, SVG Export Plug-In . SVG Version: 6.00 Build 0)  -->
<svg version="1.2" baseProfile="tiny" id="Layer_4" xmlns="http://www.w3.org/2000/svg" xmlns:xlink="http://www.w3.org/1999/xlink"
	 x="0px" y="0px" viewBox="0 0 130.169 130.169" xml:space="preserve">
<g>
	<path fill="#FFFFFF" d="M92.598,0H37.571C16.82,0,0,16.821,0,37.572v55.026c0,20.75,16.82,37.57,37.571,37.57h55.027
		c20.748,0,37.57-16.82,37.57-37.57V37.572C130.169,16.821,113.346,0,92.598,0 M118.182,93.565
		c0,13.774-11.167,24.941-24.941,24.941H36.927c-13.774,0-24.94-11.167-24.94-24.941V37.251c0-13.774,11.166-24.941,24.94-24.941
		h56.314c13.774,0,24.941,11.167,24.941,24.941V93.565z"/>
	<path fill="#FFFFFF" d="M65.083,31.634c-18.652,0-33.774,15.121-33.774,33.774c0,18.653,15.122,33.773,33.774,33.773
		c18.654,0,33.774-15.12,33.774-33.773C98.858,46.754,83.738,31.634,65.083,31.634 M65.083,87.301
		c-12.091,0-21.893-9.803-21.893-21.894c0-12.092,9.801-21.894,21.893-21.894c12.092,0,21.895,9.802,21.895,21.894
		C86.978,77.499,77.175,87.301,65.083,87.301"/>
	<path fill="#FFFFFF" d="M99.985,22.48c-4.346,0-7.868,3.523-7.868,7.869c0,4.345,3.522,7.869,7.868,7.869
		c4.346,0,7.868-3.523,7.868-7.869C107.853,26.004,104.331,22.48,99.985,22.48"/>
</g>
</svg>
