<?xml version="1.0" encoding="utf-8"?>
<!-- Generator: Adobe Illustrator 24.0.1, SVG Export Plug-In . SVG Version: 6.00 Build 0)  -->
<svg version="1.2" baseProfile="tiny" id="Camada_16"
	 xmlns="http://www.w3.org/2000/svg" xmlns:xlink="http://www.w3.org/1999/xlink" x="0px" y="0px" viewBox="0 0 20 25"
	 xml:space="preserve">
<g>
	<path fill="#A70000" d="M17.2,16H2.9V7.1C2.9,3.2,6.1,0,10,0c3.9,0,7.1,3.2,7.1,7.1V16z M5.8,13.2h8.5v-6c0-2.3-1.9-4.3-4.3-4.3
		S5.8,4.8,5.8,7.1V13.2z"/>
</g>
<g>
	<path fill="#1B1B1B" d="M0,12.4V25h20V12.4H0z M10,20.2c-0.8,0-1.5-0.7-1.5-1.5s0.7-1.5,1.5-1.5c0.8,0,1.5,0.7,1.5,1.5
		S10.8,20.2,10,20.2z"/>
</g>
</svg>
