<?xml version="1.0" encoding="utf-8"?>
<!-- Generator: Adobe Illustrator 24.0.1, SVG Export Plug-In . SVG Version: 6.00 Build 0)  -->
<svg version="1.2" baseProfile="tiny" id="Camada_17"
	 xmlns="http://www.w3.org/2000/svg" xmlns:xlink="http://www.w3.org/1999/xlink" x="0px" y="0px" viewBox="0 0 20.8 25"
	 xml:space="preserve">
<path fill="#A70000" d="M10.7,2.1h-0.4c0,0-0.3,0.6-0.3,0.6c0,0,0.4,2.3,0.4,2.3h0.4c4,0.2,7.2,3.5,7.2,7.5c0,3.4-2.3,6.3-5.4,7.2
	l1.8,1.8l-1,1c4.3-1.3,7.5-5.3,7.5-10C20.8,6.9,16.3,2.2,10.7,2.1z"/>
<polygon fill="#1B1B1B" points="10.4,0 6.9,3.5 10.4,7.1 "/>
<path fill="#A70000" d="M10.5,20h-0.4c-4-0.2-7.2-3.5-7.2-7.5c0-3.4,2.3-6.3,5.4-7.2L6.5,3.5l1-1C3.2,3.8,0,7.8,0,12.5
	c0,5.6,4.5,10.3,10.1,10.4h0.4l0.3-0.7c0,0,0.4-1,0.5-1.1C11.3,21,10.5,20,10.5,20z"/>
<polygon fill="#1B1B1B" points="10.4,25 13.9,21.5 10.4,17.9 "/>
</svg>
