<?xml version="1.0" encoding="utf-8"?>
<!-- Generator: Adobe Illustrator 24.0.1, SVG Export Plug-In . SVG Version: 6.00 Build 0)  -->
<svg version="1.2" baseProfile="tiny" id="Camada_3"
	 xmlns="http://www.w3.org/2000/svg" xmlns:xlink="http://www.w3.org/1999/xlink" x="0px" y="0px" viewBox="0 0 22 22"
	 xml:space="preserve">
<g>
	<circle fill="#A70000" cx="11" cy="16.1" r="2.6"/>
</g>
<g>
	<path fill="#A70000" d="M11,22C4.9,22,0,17.1,0,11S4.9,0,11,0C17,0,22,4.9,22,11S17,22,11,22z M11,2.5c-4.7,0-8.5,3.8-8.5,8.5
		s3.8,8.5,8.5,8.5s8.5-3.8,8.5-8.5S15.6,2.5,11,2.5z"/>
</g>
<g>
	<g>
		<g>
			<rect x="15.9" y="9.8" fill="#A70000" width="2.4" height="2.5"/>
		</g>
		<g>
			
				<rect x="14.1" y="5.5" transform="matrix(0.7071 -0.7071 0.7071 0.7071 -0.2859 12.791)" fill="#A70000" width="2.4" height="2.5"/>
		</g>
		<g>
			<rect x="9.7" y="3.7" fill="#A70000" width="2.5" height="2.4"/>
		</g>
		<g>
			
				<rect x="5.4" y="5.5" transform="matrix(0.7071 -0.7071 0.7071 0.7071 -2.8103 6.6964)" fill="#A70000" width="2.5" height="2.4"/>
		</g>
		<g>
			<rect x="3.7" y="9.8" fill="#A70000" width="2.4" height="2.5"/>
		</g>
	</g>
</g>
<g>
	<rect x="6.9" y="9.5" transform="matrix(0.7071 -0.7071 0.7071 0.7071 -7.1782 9.7336)" fill="#FFFFFF" width="2.5" height="8"/>
</g>
</svg>
