<?xml version="1.0" encoding="utf-8"?>
<!-- Generator: Adobe Illustrator 24.0.1, SVG Export Plug-In . SVG Version: 6.00 Build 0)  -->
<svg version="1.2" baseProfile="tiny" id="Camada_2_cópia"
	 xmlns="http://www.w3.org/2000/svg" xmlns:xlink="http://www.w3.org/1999/xlink" x="0px" y="0px" viewBox="0 0 23.2 22"
	 xml:space="preserve">
<g>
	<path fill="#353535" d="M10.9,0C4.9,0,0,5,0,11s4.9,11,10.9,11l1.3,0V0L10.9,0z M2.5,11c0-4.2,3.1-7.7,7.2-8.4v0
		C9,4.4,8.5,7.5,8.5,11c0,3.5,0.5,6.6,1.2,8.3C5.6,18.7,2.5,15.2,2.5,11z"/>
	<g>
		<g>
			<g>
				
					<rect x="16.2" y="12.6" transform="matrix(0.7071 -0.7071 0.7071 0.7071 -6.3835 17.0777)" fill="#353535" width="2.5" height="7.3"/>
			</g>
			<g>
				<rect x="15.9" y="9.8" fill="#353535" width="7.3" height="2.5"/>
			</g>
			<g>
				
					<rect x="13.8" y="4.7" transform="matrix(0.7071 -0.7071 0.7071 0.7071 0.8745 14.0712)" fill="#353535" width="7.3" height="2.5"/>
			</g>
		</g>
	</g>
</g>
</svg>
