<?xml version="1.0" encoding="utf-8"?>
<!-- Generator: Adobe Illustrator 24.0.1, SVG Export Plug-In . SVG Version: 6.00 Build 0)  -->
<svg version="1.2" baseProfile="tiny" id="Camada_1"
	 xmlns="http://www.w3.org/2000/svg" xmlns:xlink="http://www.w3.org/1999/xlink" x="0px" y="0px" viewBox="0 0 22 22"
	 xml:space="preserve">
<g>
	<g>
		<g>
			<path fill="#FFFFFF" d="M16.7,17.1l0.3-0.3c1.6-1.3,2.5-3.2,2.5-5.2c0-2-0.9-3.9-2.5-5.2l-0.3-0.3l1.8-1.8l0.3,0.2
				c2.1,1.7,3.3,4.3,3.3,7c0,2.7-1.2,5.3-3.3,7l-0.3,0.2L16.7,17.1z"/>
		</g>
		<g>
			<path fill="#FFFFFF" d="M13.9,14.2l0.4-0.2c0.8-0.5,1.3-1.4,1.3-2.3c0-1-0.5-1.8-1.3-2.3L13.9,9l1.8-1.8l0.3,0.2
				c1.3,1,2.1,2.5,2.1,4.2c0,1.7-0.8,3.2-2.1,4.2L15.7,16L13.9,14.2z"/>
		</g>
	</g>
	<path fill="#A70000" d="M5.6,6.5H0v9.1h5.6l6.5,6.5V0L5.6,6.5z M9.6,15.9L6.7,13h0V9h0l2.9-2.9V15.9z"/>
</g>
</svg>
