<?xml version="1.0" encoding="utf-8"?>
<!-- Generator: Adobe Illustrator 24.0.1, SVG Export Plug-In . SVG Version: 6.00 Build 0)  -->
<svg version="1.2" baseProfile="tiny" id="Camada_5_cópia"
	 xmlns="http://www.w3.org/2000/svg" xmlns:xlink="http://www.w3.org/1999/xlink" x="0px" y="0px" viewBox="0 0 29.3 22"
	 xml:space="preserve">
<g>
	<g>
		<path fill="#353535" d="M4.6,11.4L0,6.8L6.8,0l4.6,4.6L4.6,11.4z M3.6,6.8l1,1l3.2-3.2l-1-1L3.6,6.8z"/>
	</g>
	<g>
		<path fill="#353535" d="M24.7,11.4l-6.8-6.8L22.5,0l6.8,6.8L24.7,11.4z M21.5,4.6l3.2,3.2l1-1l-3.2-3.2L21.5,4.6z"/>
	</g>
	<path fill="#353535" d="M18.3,0c0,2-1.6,3.7-3.7,3.7C12.6,3.7,11,2,11,0c0,0,0,0,0,0h-0.3v0H6.8v22h15.7V0H18.3z"/>
</g>
</svg>
