<?xml version="1.0" encoding="utf-8"?>
<!-- Generator: Adobe Illustrator 24.0.1, SVG Export Plug-In . SVG Version: 6.00 Build 0)  -->
<svg version="1.2" baseProfile="tiny" id="Camada_12"
	 xmlns="http://www.w3.org/2000/svg" xmlns:xlink="http://www.w3.org/1999/xlink" x="0px" y="0px" viewBox="0 0 33.1 40"
	 xml:space="preserve">
<g>
	<g>
		<path fill="#FFFFFF" d="M23.9,39.2h-5.3V37h5.3c2.3,0,4.2-1.9,4.2-4.2v-2.1h2.2v2.1C30.2,36.4,27.4,39.2,23.9,39.2z"/>
	</g>
	<g>
		<path fill="#FFFFFF" d="M32,18.8h-4.9v-3.4c0-5.8-4.7-10.5-10.5-10.5S6,9.7,6,15.5v3.4H1.1v-3.4C1.1,6.9,8,0,16.6,0
			S32,6.9,32,15.5V18.8z"/>
	</g>
	<g>
		<path fill="#A70000" d="M6.3,15.9c-3.3,0-5.1,2-6.3,4.9V27c1.2,2.9,3,4.9,6.3,4.9H8v-16H6.3z"/>
		<path fill="#A70000" d="M26.8,15.9c3.3,0,5.1,2,6.3,4.9V27c-1.2,2.9-3,4.9-6.3,4.9h-1.6v-16H26.8z"/>
	</g>
	<path fill="#A70000" d="M18,40h-2.9c-1,0-1.9-0.8-1.9-1.9v0c0-1,0.8-1.9,1.9-1.9H18c1,0,1.9,0.8,1.9,1.9v0C19.9,39.2,19,40,18,40z"
		/>
</g>
</svg>
