<?xml version="1.0" encoding="utf-8"?>
<!-- Generator: Adobe Illustrator 24.0.1, SVG Export Plug-In . SVG Version: 6.00 Build 0)  -->
<svg version="1.2" baseProfile="tiny" id="Camada_7"
	 xmlns="http://www.w3.org/2000/svg" xmlns:xlink="http://www.w3.org/1999/xlink" x="0px" y="0px" viewBox="0 0 98.2 40"
	 xml:space="preserve">
<g>
	<linearGradient id="SVGID_1_" gradientUnits="userSpaceOnUse" x1="49.1071" y1="-2.5951" x2="49.1071" y2="41.9382">
		<stop  offset="0" style="stop-color:#141414"/>
		<stop  offset="0.5047" style="stop-color:#191919"/>
		<stop  offset="1" style="stop-color:#242424"/>
	</linearGradient>
	<polygon fill="url(#SVGID_1_)" points="0,40 40.1,0 98.2,0 58.2,40 	"/>
	<polygon fill="#FE0000" points="7.7,36.7 41.3,3 90.9,3 56.9,37 	"/>
	<polygon fill="#FE0000" points="7.3,37 41.3,3 90.9,3 56.9,37 	"/>
	<radialGradient id="SVGID_2_" cx="49.2965" cy="20.0032" r="28.9828" gradientUnits="userSpaceOnUse">
		<stop  offset="0" style="stop-color:#FF4040"/>
		<stop  offset="1" style="stop-color:#FE0000;stop-opacity:0"/>
	</radialGradient>
	<polygon fill="url(#SVGID_2_)" points="11.3,35.2 42,4.5 87.2,4.5 56.3,35.5 	"/>
	<linearGradient id="SVGID_3_" gradientUnits="userSpaceOnUse" x1="49.2742" y1="1.5972" x2="49.2742" y2="37.2035">
		<stop  offset="0" style="stop-color:#FFFFFF;stop-opacity:0.8"/>
		<stop  offset="1" style="stop-color:#FE0000;stop-opacity:0"/>
	</linearGradient>
	<polygon fill="url(#SVGID_3_)" points="11.8,35 42,4.8 86.8,4.8 56.3,35.2 	"/>
	<linearGradient id="SVGID_4_" gradientUnits="userSpaceOnUse" x1="49.2742" y1="4.2156" x2="49.2742" y2="35.8245">
		<stop  offset="0.4292" style="stop-color:#FE0000;stop-opacity:0"/>
		<stop  offset="1" style="stop-color:#8C0000;stop-opacity:0.8"/>
	</linearGradient>
	<polygon fill="url(#SVGID_4_)" points="86.8,5 56.6,35.2 11.8,35.2 42.2,4.8 	"/>
</g>
<path fill="#FFFFFF" d="M57.6,27.4l-4.5-4.5c0.9-1.2,1.4-2.6,1.4-4.2c0-3.8-3.1-7-7-7s-7,3.1-7,7s3.1,7,7,7c1.6,0,3-0.5,4.2-1.4
	l4.5,4.5L57.6,27.4z"/>
</svg>
