<?xml version="1.0" encoding="utf-8"?>
<!-- Generator: Adobe Illustrator 24.0.1, SVG Export Plug-In . SVG Version: 6.00 Build 0)  -->
<svg version="1.2" baseProfile="tiny" id="Camada_11"
	 xmlns="http://www.w3.org/2000/svg" xmlns:xlink="http://www.w3.org/1999/xlink" x="0px" y="0px" viewBox="0 0 150.8 75.5"
	 xml:space="preserve">
<g>
	<linearGradient id="SVGID_1_" gradientUnits="userSpaceOnUse" x1="75.4092" y1="-1.6699" x2="75.4092" y2="76.4367">
		<stop  offset="0" style="stop-color:#8C0000"/>
		<stop  offset="1" style="stop-color:#FF4343"/>
	</linearGradient>
	<polygon fill="url(#SVGID_1_)" points="75.5,0 150.8,0 75.6,75.2 0,75.5 	"/>
	<radialGradient id="SVGID_2_" cx="75.4258" cy="37.7452" r="41.6118" gradientUnits="userSpaceOnUse">
		<stop  offset="0" style="stop-color:#FF4040"/>
		<stop  offset="1" style="stop-color:#FE0000;stop-opacity:0"/>
	</radialGradient>
	<polygon fill="url(#SVGID_2_)" points="20.9,59.6 65,15.5 129.9,15.5 85.5,60 	"/>
	<polygon fill="#FE0000" points="2.4,74.5 75.9,1 148.4,1 75.2,74.2 	"/>
	<linearGradient id="SVGID_3_" gradientUnits="userSpaceOnUse" x1="75.4258" y1="1.0146" x2="75.4258" y2="73.0951">
		<stop  offset="0" style="stop-color:#FE0000;stop-opacity:0"/>
		<stop  offset="1" style="stop-color:#8C0000;stop-opacity:0.8"/>
	</linearGradient>
	<polygon fill="url(#SVGID_3_)" points="77.2,4 141.2,4 73.9,71.2 9.7,71.5 	"/>
	<linearGradient id="SVGID_4_" gradientUnits="userSpaceOnUse" x1="75.4258" y1="1.0146" x2="75.4258" y2="73.0951">
		<stop  offset="0" style="stop-color:#FFFFFF;stop-opacity:0.8"/>
		<stop  offset="0.7626" style="stop-color:#FE0000;stop-opacity:0"/>
	</linearGradient>
	<polygon fill="url(#SVGID_4_)" points="77.2,4 141.2,4 73.9,71.2 9.7,71.5 	"/>
</g>
<g>
	<g>
		<polygon fill="#141414" points="84.7,43 69.1,43 66.6,30.4 63.9,30.4 63.9,28.1 68.4,28.1 71,40.8 84.7,40.8 		"/>
	</g>
	<polygon fill="#FFFFFF" points="70,30.5 71.9,39.6 84.6,39.6 86.9,31.4 	"/>
	<circle fill="#FFFFFF" cx="70.6" cy="45.6" r="1.8"/>
	<circle fill="#FFFFFF" cx="82.9" cy="45.6" r="1.8"/>
</g>
</svg>
