<?xml version="1.0" encoding="utf-8"?>
<!-- Generator: Adobe Illustrator 24.0.1, SVG Export Plug-In . SVG Version: 6.00 Build 0)  -->
<svg version="1.2" baseProfile="tiny" id="Camada_13"
	 xmlns="http://www.w3.org/2000/svg" xmlns:xlink="http://www.w3.org/1999/xlink" x="0px" y="0px" viewBox="0 0 31.4 40"
	 xml:space="preserve">
<path fill="#FFFFFF" d="M0,40c0-8.7,7-15.7,15.7-15.7s15.7,7,15.7,15.7"/>
<g>
	<path fill="#A70000" d="M15.7,21.3C9.8,21.3,5,16.6,5,10.7S9.8,0,15.7,0s10.7,4.8,10.7,10.7S21.6,21.3,15.7,21.3z M15.7,4.6
		c-3.3,0-6.1,2.7-6.1,6.1c0,3.3,2.7,6.1,6.1,6.1c3.3,0,6.1-2.7,6.1-6.1C21.8,7.3,19,4.6,15.7,4.6z"/>
</g>
</svg>
